<?xml version="1.0" encoding="utf-8"?>
<!-- Generator: Adobe Illustrator 21.0.0, SVG Export Plug-In . SVG Version: 6.00 Build 0)  -->
<svg version="1.1"
	 id="Layer_1" inkscape:version="0.91 r13725" sodipodi:docname="s2-v1.svg" xmlns:cc="http://creativecommons.org/ns#" xmlns:dc="http://purl.org/dc/elements/1.1/" xmlns:inkscape="http://www.inkscape.org/namespaces/inkscape" xmlns:rdf="http://www.w3.org/1999/02/22-rdf-syntax-ns#" xmlns:sodipodi="http://sodipodi.sourceforge.net/DTD/sodipodi-0.dtd" xmlns:svg="http://www.w3.org/2000/svg"
	 xmlns="http://www.w3.org/2000/svg" xmlns:xlink="http://www.w3.org/1999/xlink" x="0px" y="0px" viewBox="0 0 444 331"
	 style="enable-background:new 0 0 444 331;" xml:space="preserve">
<style type="text/css">
	.st0{fill:#1165A6;}
</style>
<sodipodi:namedview  bordercolor="#666666" borderopacity="1" gridtolerance="10" guidetolerance="10" id="namedview3442" inkscape:current-layer="Layer_1" inkscape:cx="108.88155" inkscape:cy="165.5" inkscape:pageopacity="0" inkscape:pageshadow="2" inkscape:window-height="704" inkscape:window-maximized="1" inkscape:window-width="1366" inkscape:window-x="0" inkscape:window-y="27" inkscape:zoom="1.5558912" objecttolerance="10" pagecolor="#ffffff" showgrid="false">
	</sodipodi:namedview>
<path class="st0" d="M414.7,191.8c-12.2-0.6-22.7,6.9-26.5,17.6h-42.1c0,0,0,0,0,0c-3.1-0.2-6,2.2-7,5.9l-5.9,23l-13.6-81.7
	c-0.6-3.9-3.5-6.7-6.8-6.8h0c-3.3,0-6.2,2.8-6.8,6.7l-10.4,59.8h-29.9c0,0,0,0,0,0h-11.1v0h-42v-1.2l45.4-42
	c24.9-23.3,40.9-40.3,48.1-51.1c7.2-10.8,10.9-22.4,10.9-34.7c0-18.6-7.6-35-22.7-49.2c-15.1-14.2-32.7-21.3-52.6-21.3
	c-21.1,0-39.2,7-54.1,21.1c-4.6,4.4-8.5,8.6-11.7,12.8c-3.6-5.1-8.3-10.4-13.9-15.7c-15.5-14.5-34.4-21.8-56.2-21.8
	c-20.6,0-39,7.4-54.7,22C35.4,50,27.4,67.2,27.4,86.5c0,12.8,3.8,24.9,11.4,36.1c7.4,11,23.4,27.9,48.9,51.5l29.9,27.7
	c9.5,9.6,16.3,17.2,20.2,22.5c5.7,7.9,8.7,16.4,8.8,25.1c0.2,13.4-5.3,25.5-16.3,35.8c-11.1,10.4-24.3,15.8-39.3,16
	c-12.7,0.2-24.4-3.2-35-10l0.1-0.1l-1.5-1.2c-5.8-4.6-10.7-10.3-14.7-17c-6.8-11.5-9.4-23.4-7.6-35.5c0.9-8.6-3-12.1-6.4-13.6
	c-2.4-1-5-1.1-7.7-0.2c-2.9,0.9-4.8,2.6-5.9,5.1c-5.2,11.9-3.5,27.8,4.9,47.3c6.1,14,15.3,25.4,27.5,33.9l2.7,1.9l0.1-0.2
	C60,319.2,74.2,323,89.9,323c0.5,0,1.1,0,1.6,0c20.6-0.3,38.9-8.1,54.3-22.9c15.5-14.9,23.2-32.2,22.8-51.5
	c-0.2-12.8-4.2-24.8-12-35.9c-7.5-10.8-24.3-27.9-49.7-50.7l-12.7-11.4l0,0.2c-18.4-18.1-30.7-31.4-36.4-39.5
	c-5.6-8-8.4-16.5-8.4-25.2c0-13.4,5.7-25.4,16.9-35.5c11.3-10.2,24.6-15.4,39.5-15.4c13.4,0,25.7,4,36.6,11.8
	c10.6,7.6,17.6,17.3,20.9,28.7c1,5.9,4.8,10.3,9.3,10.3c3,0,5.7-1.9,7.4-4.9c0.8-1.2,1.5-2.7,2-4.4c0.3-1.2,0.7-2.3,1.1-3.5
	c0.5-1.3,1-2.6,1.3-3.6c3.9-9.2,10.4-17.2,19.5-23.8c11.3-8.2,23.9-12.3,37.8-12.3c15.5,0,29.2,5.3,40.9,16
	c11.7,10.7,17.6,23.1,17.6,37.3c0,9.3-2.9,18.2-8.8,26.7c-5.8,8.3-18,21.7-36.5,40c0,0,0-0.1,0-0.1l-58.4,55v0.1
	c-5.2,3.6-6.9,10.8-3.8,16.9c2.5,4.9,7.4,7.6,12.3,7.5c0,0,0.1,0.1,0.1,0.1h49.5h5.1h13.6v0h27.9c3.3,0,6.1-2.8,6.8-3.6l4.6-26.3
	l12.3,70.8c0.6,3.8,3.3,6.5,6.5,6.7c3.2,0.1,6.1-2.2,7-5.9l12.1-47.1l0.3,0.1c0-0.1,0.1-0.3,0.1-0.4c0,0,0,0,0,0h37.2
	c3.7,10.3,13.5,17.7,25.1,17.7c15.3,0,27.6-12.9,26.6-28.4C439.1,203.4,428.1,192.5,414.7,191.8z"/>
</svg>
