<?xml version="1.0" encoding="utf-8"?>
<!-- Generator: Adobe Illustrator 19.2.0, SVG Export Plug-In . SVG Version: 6.00 Build 0)  -->
<svg version="1.1" id="Layer_1" xmlns="http://www.w3.org/2000/svg" xmlns:xlink="http://www.w3.org/1999/xlink" x="0px" y="0px"
	 viewBox="0 0 841.9 595.3" style="enable-background:new 0 0 841.9 595.3;" xml:space="preserve">
<style type="text/css">
	.st0{fill:#1565A6;}
	.st1{clip-path:url(#SVGID_2_);fill:#1565A6;}
</style>
<rect x="116.5" y="282.4" class="st0" width="90.6" height="22.6"/>
<rect x="150.5" y="248.4" class="st0" width="22.6" height="90.6"/>
<g>
	<defs>
		<rect id="SVGID_1_" width="841.9" height="595.3"/>
	</defs>
	<clipPath id="SVGID_2_">
		<use xlink:href="#SVGID_1_"  style="overflow:visible;"/>
	</clipPath>
	<path class="st1" d="M161.8,351.5c-31.9,0-57.8-25.9-57.8-57.8s25.9-57.8,57.8-57.8s57.8,25.9,57.8,57.8S193.7,351.5,161.8,351.5
		 M161.8,242.4c-28.3,0-51.3,23-51.3,51.3c0,28.3,23,51.3,51.3,51.3s51.3-23,51.3-51.3C213.2,265.4,190.1,242.4,161.8,242.4"/>
	<path class="st1" d="M234.2,295.2V295c0-17.6,11.5-27.2,23.9-27.2c7.9,0,12.8,3.6,16.4,7.8v-25.9h14.9v71.6h-14.9v-7.6
		c-3.6,4.9-8.6,8.5-16.4,8.5C245.9,322.4,234.2,312.8,234.2,295.2 M274.7,295.2V295c0-8.7-5.8-14.5-12.7-14.5
		c-7,0-12.8,5.7-12.8,14.5v0.2c0,8.7,5.9,14.5,12.8,14.5C268.9,309.8,274.7,304,274.7,295.2"/>
	<path class="st1" d="M298.8,268.9h14.9v10.6c3-7.3,7.9-12,16.8-11.6v15.6h-0.8c-9.9,0-16,6-16,18.5v19.4h-14.9V268.9z"/>
	<rect x="330.7" y="307.6" class="st1" width="14" height="13.8"/>
	<path class="st1" d="M348.9,295.4v-0.2c0-15,11.5-27.4,27.6-27.4c9.9,0,16.1,3.3,21,8.8l-9.1,9.8c-3.3-3.5-6.7-5.8-12-5.8
		c-7.5,0-12.7,6.6-12.7,14.3v0.2c0,8,5.2,14.5,13.3,14.5c5,0,8.4-2.2,12.1-5.6l8.7,8.8c-5.1,5.6-11,9.6-21.5,9.6
		C360.5,322.6,348.9,310.4,348.9,295.4"/>
	<path class="st1" d="M401.5,295.4v-0.2c0-15.1,12.2-27.4,28.5-27.4c16.3,0,28.3,12.1,28.3,27.2v0.2c0,15.1-12.2,27.4-28.5,27.4
		C413.6,322.6,401.5,310.5,401.5,295.4 M443.7,295.4v-0.2c0-7.7-5.6-14.5-13.8-14.5c-8.5,0-13.6,6.6-13.6,14.3v0.2
		c0,7.7,5.6,14.5,13.8,14.5C438.6,309.8,443.7,303.2,443.7,295.4"/>
	<path class="st1" d="M465.2,268.9h14.9v7.5c3.4-4.4,7.8-8.4,15.4-8.4c11.3,0,17.8,7.5,17.8,19.5v34h-14.9v-29.3
		c0-7.1-3.3-10.7-9-10.7c-5.7,0-9.3,3.6-9.3,10.7v29.3h-14.9V268.9z"/>
	<path class="st1" d="M520.2,314.5l6.4-9.8c5.7,4.1,11.7,6.3,16.6,6.3c4.3,0,6.3-1.6,6.3-3.9v-0.2c0-3.2-5.1-4.3-10.9-6.1
		c-7.4-2.2-15.7-5.6-15.7-15.8v-0.2c0-10.7,8.6-16.7,19.2-16.7c6.7,0,13.9,2.3,19.6,6.1l-5.7,10.3c-5.2-3-10.4-4.9-14.2-4.9
		c-3.6,0-5.5,1.6-5.5,3.6v0.2c0,2.9,5,4.3,10.7,6.3c7.4,2.5,15.9,6,15.9,15.6v0.2c0,11.7-8.7,17-20.1,17
		C535.4,322.4,527.2,319.9,520.2,314.5"/>
	<path class="st1" d="M569.3,302.9v-34h14.9v29.3c0,7.1,3.3,10.7,9,10.7s9.3-3.6,9.3-10.7v-29.3h14.9v52.6h-14.9V314
		c-3.4,4.4-7.8,8.4-15.4,8.4C575.8,322.4,569.3,314.9,569.3,302.9"/>
	<rect x="627.5" y="249.8" class="st1" width="14.9" height="71.6"/>
	<path class="st1" d="M656.9,306.5v-24.9h-6.3v-12.7h6.3v-13.4h14.9v13.4h12.4v12.7h-12.4v22.5c0,3.4,1.5,5.1,4.8,5.1
		c2.7,0,5.2-0.7,7.4-1.9v12c-3.1,1.9-6.8,3-11.8,3C663.1,322.3,656.9,318.7,656.9,306.5"/>
	<path class="st1" d="M690.1,306.3v-0.2c0-11.5,8.7-16.8,21.2-16.8c5.3,0,9.1,0.9,12.8,2.2v-0.9c0-6.2-3.8-9.6-11.3-9.6
		c-5.7,0-9.7,1.1-14.5,2.8l-3.7-11.4c5.8-2.5,11.5-4.2,20.4-4.2c8.1,0,14,2.2,17.7,5.9c3.9,3.9,5.7,9.7,5.7,16.8v30.5H724v-5.7
		c-3.6,4-8.6,6.7-15.9,6.7C698.2,322.4,690.1,316.7,690.1,306.3 M724.3,302.9v-2.6c-2.5-1.2-5.9-2-9.5-2c-6.4,0-10.3,2.5-10.3,7.3
		v0.2c0,4,3.3,6.4,8.1,6.4C719.6,312.1,724.3,308.3,724.3,302.9"/>
</g>
</svg>
